<svg width="11" height="11" viewBox="0 0 11 11" xmlns="http://www.w3.org/2000/svg"><path d="M8.637 10.866c-.055 0-.11-.017-.158-.052L5.5 8.65l-2.98 2.164c-.093.07-.22.07-.316 0-.094-.068-.133-.19-.098-.3L3.244 7.01.264 4.848c-.093-.07-.133-.19-.096-.3.035-.112.14-.187.255-.187h3.683L5.244.86c.036-.11.14-.185.256-.185.116 0 .22.075.256.185l1.138 3.5h3.682c.117 0 .22.075.256.186.036.11-.003.232-.097.3L7.755 7.01l1.138 3.504c.036.11-.003.233-.097.3-.048.036-.103.053-.16.053zM5.5 8.048c.055 0 .11.017.158.05l2.467 1.794-.942-2.9c-.036-.11.003-.233.098-.3l2.47-1.795H6.7c-.116 0-.22-.075-.256-.186l-.942-2.9-.943 2.9c-.04.11-.14.19-.26.19H1.25l2.47 1.79c.094.07.133.19.097.302l-.942 2.9L5.342 8.1c.047-.035.102-.052.158-.052z" fill="#E9DF63" fill-rule="evenodd"/></svg>
