<svg width="11" height="11" viewBox="0 0 11 11" xmlns="http://www.w3.org/2000/svg"><path d="M8.637 10.866c-.055 0-.11-.017-.158-.052L5.5 8.65l-2.98 2.164c-.093.07-.22.07-.316 0-.094-.068-.133-.19-.098-.3L3.244 7.01.264 4.848c-.093-.07-.133-.19-.096-.3.035-.112.14-.187.255-.187h3.683L5.244.857c.036-.11.14-.185.256-.185.116 0 .22.075.256.185L6.894 4.36h3.682c.117 0 .22.075.256.186.036.11-.003.232-.097.3l-2.98 2.165 1.138 3.503c.036.11-.003.233-.097.3-.048.036-.103.053-.16.053z" fill="#E9DF63" fill-rule="evenodd"/></svg>